<?xml version="1.0" encoding="UTF-8" standalone="no"?>
<!-- Created with Inkscape (http://www.inkscape.org/) -->

<svg
   width="62.005409mm"
   height="79.707558mm"
   viewBox="0 0 62.005409 79.707558"
   version="1.1"
   id="svg1713"
   inkscape:version="1.1.2 (0a00cf5339, 2022-02-04)"
   sodipodi:docname="icon_router.svg"
   xmlns:inkscape="http://www.inkscape.org/namespaces/inkscape"
   xmlns:sodipodi="http://sodipodi.sourceforge.net/DTD/sodipodi-0.dtd"
   xmlns:xlink="http://www.w3.org/1999/xlink"
   xmlns="http://www.w3.org/2000/svg"
   xmlns:svg="http://www.w3.org/2000/svg">
  <sodipodi:namedview
     id="namedview1715"
     pagecolor="#ffffff"
     bordercolor="#666666"
     borderopacity="1.0"
     inkscape:pageshadow="2"
     inkscape:pageopacity="0.0"
     inkscape:pagecheckerboard="0"
     inkscape:document-units="mm"
     showgrid="false"
     fit-margin-top="0"
     fit-margin-left="0"
     fit-margin-right="0"
     fit-margin-bottom="0"
     inkscape:zoom="0.7937095"
     inkscape:cx="-263.32052"
     inkscape:cy="104.57226"
     inkscape:window-width="1680"
     inkscape:window-height="969"
     inkscape:window-x="0"
     inkscape:window-y="0"
     inkscape:window-maximized="1"
     inkscape:current-layer="layer1" />
  <defs
     id="defs1710">
    <linearGradient
       inkscape:collect="always"
       id="linearGradient2666">
      <stop
         style="stop-color:#000000;stop-opacity:1;"
         offset="0"
         id="stop2662" />
      <stop
         style="stop-color:#989898;stop-opacity:1"
         offset="0.57326311"
         id="stop3545" />
      <stop
         style="stop-color:#696969;stop-opacity:1"
         offset="1"
         id="stop2664" />
    </linearGradient>
    <linearGradient
       inkscape:collect="always"
       xlink:href="#linearGradient2666"
       id="linearGradient2668"
       x1="50.468601"
       y1="59.690887"
       x2="95.490028"
       y2="59.337318"
       gradientUnits="userSpaceOnUse"
       gradientTransform="matrix(0.97640224,0,0,0.97640224,0.95732807,0.91631886)" />
  </defs>
  <g
     inkscape:label="Layer 1"
     inkscape:groupmode="layer"
     id="layer1"
     transform="translate(-39.563137,-37.830329)">
    <path
       id="path5183"
       style="fill:#ffffff;fill-opacity:1;stroke:#000000;stroke-width:2;stroke-miterlimit:4;stroke-dasharray:none;stroke-opacity:0.616216"
       d="m 72.961461,38.830491 c -0.28203,3.87e-4 -0.5656,0.0013 -0.85008,0.0031 -7.58608,0.04748 -15.97562,0.589044 -21.467425,1.510502 -4.055501,0.680466 -6.674625,1.395155 -8.267194,2.256193 l -1.291395,0.698666 -0.157096,2.583305 c -0.0864,1.420791 -0.202684,6.593941 -0.258384,11.495939 l -0.101285,8.912633 6.32933,5.080828 6.329329,5.080826 0.12919,7.061067 0.12919,7.061068 0.90434,0.159681 c 1.48129,0.261702 1.50864,0.256027 1.36736,-0.284221 -0.17434,-0.666702 0.55155,-0.9424 3.92121,-1.489315 1.98093,-0.321511 4.41509,-0.420129 10.34097,-0.420129 5.92589,0 8.36005,0.09862 10.34097,0.420129 3.10172,0.503422 3.99665,0.813273 3.99665,1.382344 0,0.356979 0.17836,0.398206 1.08831,0.252699 0.59854,-0.09571 1.11298,-0.19835 1.14308,-0.22841 0.0301,-0.03006 0.13854,-2.986939 0.24133,-6.57066 0.11253,-3.922947 0.30241,-6.749248 0.47749,-7.102406 0.28585,-0.576577 2.23484,-2.107025 9.38754,-7.371643 l 3.601839,-2.651001 0.18707,-11.215854 c 0.13928,-8.354728 0.11052,-11.358647 -0.11368,-11.777575 -0.831719,-1.554068 -7.830709,-3.4348 -16.271359,-4.371826 -2.97494,-0.330257 -6.90694,-0.481747 -11.1373,-0.47594 z m 1.57867,52.7513 1.96215,-0.28267 c 3.23182,-0.465595 3.24079,-1.099579 0.0233,-1.642277 -0.83448,-0.140753 -2.87841,-0.202244 -5.18108,-0.201019 -3.8378,0.002 -8.39432,0.178183 -9.2692,0.452167 -1.74604,0.546799 -0.99775,1.137272 1.84898,1.459344 l 1.57407,0.178282 v 3.353802 3.353282 l -0.50799,-0.60978 c -0.42418,-0.509225 -0.50976,-0.535332 -0.51676,-0.159681 -0.005,0.247448 0.2238,0.595092 0.50798,0.772562 0.46028,0.287427 0.51677,0.602554 0.51677,2.884067 0,2.54493 -0.003,2.55801 -0.51677,2.09341 -0.29301,-0.26522 -0.51676,-0.33818 -0.51676,-0.16898 0,0.16413 0.23258,0.53075 0.51676,0.81493 0.45408,0.45405 0.51677,0.86116 0.51677,3.35846 0,2.7906 -0.10334,3.15176 -0.72347,2.53162 -0.24111,-0.24111 -0.31006,-0.24111 -0.31006,0 0,0.1705 0.23258,0.54264 0.51676,0.82683 0.44528,0.44532 0.51677,0.86086 0.51677,3.01066 0,2.47791 -0.003,2.49128 -0.51677,2.02675 -0.5686,-0.51456 -0.66076,-0.3646 -0.24908,0.40463 0.19579,0.36585 0.54348,0.49971 1.29811,0.49971 11.25708,-4.44572 8.67191,-16.14958 8.50952,-24.956099 z"
       sodipodi:nodetypes="scsccscccccccssssssssscccssscsscsccccccsscscssssscscc" />
    <path
       style="fill:url(#linearGradient2668);fill-opacity:1;stroke-width:0.258339"
       d="m 68.648614,116.55929 c -0.584999,-0.14772 -0.579198,-0.16642 0.322925,-1.04071 l 0.918625,-0.89028 v 0.92723 c 0,0.99722 -0.301658,1.24109 -1.24155,1.00376 z m -3.916157,-0.52095 c -0.411676,-0.76923 -0.319346,-0.91907 0.249252,-0.4045 0.51329,0.46453 0.516679,0.45123 0.516679,-2.02668 0,-2.14981 -0.07136,-2.56562 -0.516679,-3.01094 -0.284174,-0.28418 -0.51668,-0.65619 -0.51668,-0.82669 0,-0.24111 0.06889,-0.24111 0.310008,0 0.620132,0.62014 0.723351,0.25887 0.723351,-2.53173 0,-2.49729 -0.06263,-2.90436 -0.516679,-3.35841 -0.284174,-0.28418 -0.51668,-0.65095 -0.51668,-0.81507 0,-0.16921 0.223674,-0.096 0.51668,0.16922 0.513378,0.4646 0.516679,0.45122 0.516679,-2.09371 0,-2.28151 -0.05644,-2.596537 -0.516679,-2.883963 -0.284174,-0.177469 -0.512812,-0.525127 -0.508084,-0.772575 0.0072,-0.37565 0.09246,-0.349245 0.516679,0.159976 l 0.508084,0.609887 v -3.353669 -3.353669 l -1.574131,-0.178091 c -2.846728,-0.322072 -3.594893,-0.91265 -1.84887,-1.459447 1.399824,-0.438376 12.225154,-0.626611 14.450438,-0.251269 3.217464,0.542697 3.208415,1.176696 -0.02345,1.642292 l -1.962088,0.28267 0.04513,2.467367 c 0.02483,1.357051 0.09019,1.961829 0.145267,1.343953 0.09744,-1.093201 0.113598,-1.11123 0.600718,-0.670397 1.270349,1.149653 0.264894,2.565753 -3.389439,4.773738 -2.161871,1.306217 -4.062389,3.106107 -5.265243,4.986477 -1.146214,1.79182 -1.185311,2.16555 -0.08489,0.81142 0.459307,-0.5652 1.38933,-1.60601 2.066717,-2.31292 l 1.231615,-1.28527 v 1.99571 c 0,1.09765 0.06925,1.99571 0.153875,1.99571 0.08463,0 0.491517,-0.24042 0.904189,-0.53427 0.719744,-0.5125 0.750314,-0.61739 0.750314,-2.57431 0,-1.75253 0.07043,-2.07773 0.499696,-2.30746 0.274833,-0.14709 0.558701,-0.26743 0.630819,-0.26743 0.07212,0 0.0629,0.81377 -0.02049,1.80837 -0.131415,1.56753 -0.095,1.80839 0.27337,1.80839 0.360655,0 0.424979,-0.32819 0.424979,-2.16826 0,-2.084495 0.148148,-2.481852 0.925319,-2.481852 0.05942,0 0.127584,0.72658 0.151468,1.614612 0.02916,1.08398 0.07673,1.29624 0.144765,0.64585 0.113295,-1.08309 0.244653,-1.17434 0.743885,-0.51668 0.96249,1.26793 0.301042,2.16489 -3.353711,4.54787 -2.950385,1.9237 -4.512271,3.44057 -5.757982,5.59197 -0.598667,1.03392 -0.442079,0.91961 1.415539,-1.03336 l 2.088667,-2.19589 0.01265,2.51881 c 0.0069,1.38535 0.0819,2.51881 0.166544,2.51881 0.08464,0 0.491528,-0.19944 0.904189,-0.4432 0.749263,-0.44261 0.750294,-0.44679 0.750294,-3.04841 0,-1.68181 0.10988,-2.71508 0.310008,-2.9152 0.68771,-0.68772 0.852521,-0.28567 0.852521,2.07972 0,3.34626 0.497557,2.96957 0.58996,-0.44663 0.06456,-2.38681 0.133738,-2.74161 0.581265,-2.98112 0.48681,-0.26053 0.509864,-0.17188 0.553118,2.12687 0.02483,1.3193 0.09019,1.8932 0.145267,1.27532 0.09744,-1.09321 0.113597,-1.11123 0.600717,-0.6704 1.264667,1.14451 0.353249,2.45318 -3.245346,4.6599 -1.136695,0.69704 -2.732274,1.9358 -3.545732,2.7528 -1.307339,1.31303 -1.598652,1.48545 -2.509724,1.48545 -0.754633,0 -1.102341,-0.13384 -1.298138,-0.49969 z M 70.94825,99.302739 71.698542,98.859531 V 95.298476 91.73742 h -0.904188 c -0.892908,0 -0.90419,0.01383 -0.90419,1.10874 0,0.975463 -0.141541,1.247187 -1.177484,2.260473 -1.074727,1.051226 -2.955951,3.589262 -2.955951,3.988006 0,0.0909 0.925437,-0.800683 2.056531,-1.981333 l 2.056529,-2.146638 0.01018,2.389642 c 0.0056,1.314306 0.07944,2.389647 0.164081,2.389647 0.08464,0 0.491528,-0.199449 0.90419,-0.443218 z m 0.750292,15.694341 c 0,-1.25909 0.0914,-1.58986 0.499697,-1.80837 0.274833,-0.14709 0.536401,-0.26716 0.581265,-0.2668 0.04487,2.5e-4 0.08157,0.81418 0.08157,1.80854 0,1.7027 -0.03383,1.8079 -0.581264,1.80775 -0.537809,-1.5e-4 -0.581265,-0.11537 -0.581266,-1.54112 z m 1.761323,-0.60313 c 0.06838,-1.7864 0.165621,-2.19745 0.581264,-2.45703 0.47347,-0.29568 0.501474,-0.22189 0.544285,1.43427 0.03372,1.30423 0.07047,1.46174 0.145267,0.62256 0.09744,-1.0932 0.113598,-1.11123 0.600718,-0.6704 0.275318,0.24916 0.50058,0.74834 0.50058,1.10928 0,0.80045 -1.190298,2.10518 -1.921296,2.10601 -0.502197,5.1e-4 -0.528196,-0.12313 -0.450818,-2.14469 z M 54.389779,90.734639 53.485589,90.574891 53.35642,83.51382 53.22725,76.452748 46.897925,71.371851 40.568602,66.290954 40.669925,57.378233 c 0.05573,-4.901998 0.171982,-10.075187 0.25834,-11.495978 l 0.157016,-2.583253 1.291699,-0.698363 c 1.592584,-0.861038 4.211369,-1.575768 8.266873,-2.256234 8.786876,-1.474333 24.992971,-1.976926 33.454998,-1.037528 8.44065,0.937026 15.439426,2.817305 16.271139,4.371373 0.2242,0.418929 0.25328,3.423201 0.114,11.777929 l -0.18698,11.215555 -3.602218,2.651346 c -7.152704,5.264621 -9.101316,6.794791 -9.387167,7.371366 -0.175087,0.353158 -0.365187,3.179483 -0.477715,7.102434 -0.102795,3.58372 -0.211499,6.540455 -0.241565,6.570518 -0.03006,0.03006 -0.544374,0.132972 -1.142909,0.228682 -0.909955,0.145508 -1.088245,0.104073 -1.088245,-0.252904 0,-0.569071 -0.895184,-0.878603 -3.996895,-1.382022 -1.980929,-0.321514 -4.415079,-0.420492 -10.340961,-0.420492 -5.925883,0 -8.360033,0.09898 -10.340961,0.420492 -3.369665,0.546911 -4.095185,0.822469 -3.920838,1.489171 0.141277,0.540248 0.113524,0.546017 -1.367757,0.284314 z m 26.997575,-8.112595 c 0.103087,-3.024239 0.144319,-5.722497 0.09162,-5.996128 -0.09181,-0.476709 -1.569042,-1.022305 -1.892414,-0.698936 -0.07581,0.07581 -0.137827,2.784185 -0.137827,6.01862 v 5.880788 l 0.581265,0.111958 c 0.319696,0.06157 0.713713,0.127787 0.875594,0.147137 0.206976,0.02475 0.349952,-1.596672 0.481759,-5.463439 z M 78.415376,81.694462 V 75.78494 l -0.807311,-0.161462 c -0.444021,-0.0888 -2.129689,-0.161463 -3.745927,-0.161463 h -2.938615 v 5.930949 5.930946 l 2.002133,0.08805 c 1.101174,0.04843 2.786841,0.111443 3.745928,0.140039 l 1.743792,0.05199 z M 70.148504,81.40383 v -5.941815 h -0.775019 -0.77502 v 1.637949 c 0,0.900872 -0.07638,3.574689 -0.169738,5.941815 l -0.16974,4.303865 h 0.944759 0.944758 z m 18.372127,-8.688248 c 7.214404,-4.516587 9.864474,-6.531514 9.737249,-7.403516 -0.09171,-0.628606 -1.258109,-1.375244 -2.93839,-1.880933 l -1.169052,-0.351833 0.528511,0.671892 c 0.290682,0.36954 0.528512,0.821113 0.528512,1.00349 0,0.18238 -1.830983,1.928767 -4.068852,3.880865 -4.830542,4.213692 -7.039758,6.230086 -7.039758,6.425326 0,0.355941 0.700739,-0.01573 4.42178,-2.345291 z m -30.415869,1.906829 c -0.798048,-1.352045 -3.680076,-5.491272 -5.5663,-7.994427 -1.252201,-1.661762 -2.217072,-3.176851 -2.144155,-3.366864 0.07292,-0.190014 0.449524,-0.551773 0.836909,-0.803908 l 0.704335,-0.458423 -1.473435,0.161036 c -0.810389,0.08857 -2.031045,0.298664 -2.712568,0.466874 -2.163445,0.533973 -1.95649,0.855893 4.444343,6.913174 5.186651,4.908273 6.448382,5.993188 5.910871,5.082538 z m 22.656577,-1.550039 c 1.023702,-1.22313 4.333022,-4.871613 7.205483,-7.943947 1.601519,-1.712958 1.743404,-2.066155 1.054202,-2.624239 -0.893418,-0.723444 -2.150365,-0.967725 -6.6379,-1.290037 -5.872451,-0.421781 -5.374908,-0.822213 -7.76544,6.249773 -1.030691,3.049125 -1.87664,5.745094 -1.879884,5.991039 -0.0082,0.623296 1.002213,0.79958 5.314211,0.92713 l 1.574186,0.04657 z M 66.13578,69.197276 c -0.08934,-2.735172 -0.208062,-5.119733 -0.263814,-5.299026 -0.300258,-0.965561 0.706428,-1.827651 3.501519,-2.998589 0.213131,-0.08928 -1.535685,-0.121319 -3.886257,-0.07119 -4.196097,0.0895 -5.409117,0.316792 -5.417937,1.015208 -0.0062,0.492107 5.763069,12.326635 6.009182,12.326635 0.120861,0 0.146651,-2.237868 0.0573,-4.97304 z M 44.737389,67.20621 c -1.142587,-1.221518 -1.319251,-1.612605 -1.208598,-2.675523 0.04526,-0.434747 -0.0053,-0.440638 -0.699501,-0.08162 -1.879619,0.971988 -1.662335,1.724002 0.891713,3.086204 0.965829,0.515125 1.859152,0.939962 1.98516,0.944083 0.126008,0.0041 -0.30994,-0.568795 -0.968774,-1.273144 z M 62.254235,55.542552 c 1.275383,-0.35409 2.469134,-1.588913 2.469134,-2.554083 0,-0.653274 -0.105271,-0.734152 -1.161769,-0.892584 -1.302466,-0.195316 -1.679968,-0.06144 -1.679968,0.595811 0,0.728663 -0.547249,1.06978 -1.716229,1.06978 -0.843528,0 -1.190386,-0.133986 -1.504774,-0.581264 -0.544568,-0.774757 -0.975985,-2.428281 -0.788051,-3.020411 0.320164,-1.008744 2.505395,-1.280549 3.234285,-0.402289 0.228851,0.275746 0.477696,0.262246 1.366881,-0.07416 1.41275,-0.534482 1.376101,-0.483865 0.806255,-1.11354 -0.784955,-0.867362 -1.819143,-1.281435 -3.274642,-1.311113 -1.865717,-0.03804 -3.38175,0.433595 -4.279509,1.331354 -1.866262,1.866262 -0.900705,5.339291 1.893178,6.809591 0.905556,0.476557 3.180797,0.546703 4.635209,0.142905 z m 23.202181,-0.482281 c 0.496186,-0.339991 1.031221,-0.82483 1.188962,-1.077419 0.248332,-0.397641 0.131152,-0.528111 -0.873448,-0.972491 L 84.611671,52.497122 83.979494,53.1293 c -1.181737,1.181737 -3.23906,0.663799 -3.23906,-0.815444 0,-0.952708 0.643107,-2.305783 1.321892,-2.781224 0.875755,-0.613402 1.706517,-0.517824 2.500362,0.287669 0.592964,0.601663 0.874606,0.696143 1.861198,0.624345 0.639378,-0.04653 1.212415,-0.134507 1.273413,-0.195506 0.224906,-0.224905 -0.755132,-1.89966 -1.327765,-2.268977 -0.325312,-0.209809 -1.324694,-0.512451 -2.220849,-0.672539 -3.039054,-0.542891 -5.537503,0.772418 -6.234454,3.282129 -0.712152,2.564443 0.183018,4.152388 2.824532,5.01043 1.260853,0.409564 3.747267,0.125005 4.717653,-0.539912 z m -16.47923,-2.26757 c -0.0048,-1.172216 0.06585,-2.131303 0.157068,-2.131303 0.09123,0 1.094822,0.994154 2.230224,2.209229 l 2.064373,2.209229 1.653658,-0.07793 1.653659,-0.07793 v -4.133434 -4.133437 l -1.743793,-0.07638 -1.743794,-0.07638 v 2.26689 2.26689 l -2.265582,-2.255087 -2.265585,-2.255086 h -1.609512 -1.609514 v 4.274409 4.27441 l 1.743794,-0.07638 1.743793,-0.07638 -0.0088,-2.131303 z"
       id="path1747" />
  </g>
</svg>
