<?xml version="1.0" encoding="UTF-8" standalone="no"?>
<!-- Created with Inkscape (http://www.inkscape.org/) -->

<svg
   width="60mm"
   height="60.05468mm"
   viewBox="0 0 60 60.05468"
   version="1.1"
   id="svg1713"
   inkscape:version="1.1.2 (0a00cf5339, 2022-02-04)"
   sodipodi:docname="icon_laser.svg"
   xmlns:inkscape="http://www.inkscape.org/namespaces/inkscape"
   xmlns:sodipodi="http://sodipodi.sourceforge.net/DTD/sodipodi-0.dtd"
   xmlns="http://www.w3.org/2000/svg"
   xmlns:svg="http://www.w3.org/2000/svg">
  <sodipodi:namedview
     id="namedview1715"
     pagecolor="#ffffff"
     bordercolor="#666666"
     borderopacity="1.0"
     inkscape:pageshadow="2"
     inkscape:pageopacity="0.0"
     inkscape:pagecheckerboard="0"
     inkscape:document-units="mm"
     showgrid="false"
     fit-margin-top="0"
     fit-margin-left="0"
     fit-margin-right="0"
     fit-margin-bottom="0"
     inkscape:zoom="1.587419"
     inkscape:cx="246.31178"
     inkscape:cy="102.05245"
     inkscape:window-width="1680"
     inkscape:window-height="969"
     inkscape:window-x="0"
     inkscape:window-y="0"
     inkscape:window-maximized="1"
     inkscape:current-layer="layer1" />
  <defs
     id="defs1710" />
  <g
     inkscape:label="Layer 1"
     inkscape:groupmode="layer"
     id="layer1"
     transform="translate(-99.818675,-6.5965793)">
    <g
       id="g4565"
       transform="matrix(0.37802516,0,0,0.37802516,104.67734,17.468796)">
      <path
         style="fill:#f5a94a;stroke-width:0.264583"
         d="m 66.668421,129.63707 c -0.401733,-0.44391 -0.434012,-1.89703 -0.371737,-16.7349 l 0.0682,-16.248778 1.389063,-0.07997 1.389062,-0.07997 v 16.376988 c 0,15.52974 -0.02503,16.39964 -0.483854,16.81487 -0.635553,0.57517 -1.444291,0.55557 -1.99073,-0.0482 z m -17.051666,-1.94805 c -0.48768,-0.48768 -0.382582,-1.39481 0.370306,-3.1962 0.821555,-1.9657 1.314138,-2.57172 2.090319,-2.57172 0.671055,0 1.455209,0.76403 1.455209,1.41787 0,0.61916 -1.282753,3.63703 -1.787147,4.20453 -0.47258,0.5317 -1.661245,0.61296 -2.128687,0.14552 z m 31.008543,-5.19868 c -0.38448,-0.44904 -9.993379,-24.290218 -10.329522,-25.629155 -0.123266,-0.490995 0.05014,-0.681786 1.069983,-1.177266 0.766035,-0.372168 1.308921,-0.498203 1.464877,-0.340085 0.398137,0.403662 10.331965,25.595136 10.333706,26.205526 0.0035,1.23805 -1.733491,1.8818 -2.539044,0.94098 z M 33.03703,121.13801 c -0.298313,-0.32963 -0.413221,-0.73924 -0.315455,-1.12448 0.08458,-0.33328 3.288784,-3.73136 7.120451,-7.55128 7.319661,-7.29723 7.7266,-7.59757 8.754763,-6.46146 1.004187,1.10961 0.743733,1.45739 -6.522286,8.70918 -6.046644,6.03481 -7.0657,6.94655 -7.764203,6.94655 -0.462502,0 -1.00335,-0.22025 -1.27327,-0.51851 z m 65.542551,-1.29642 c -1.12871,-0.99822 -3.093998,-2.89908 -4.367305,-4.22416 -1.816716,-1.89056 -2.315104,-2.57324 -2.315104,-3.17114 0,-0.84595 0.704826,-1.63769 1.457912,-1.63769 0.749031,0 9.125426,8.42999 9.125426,9.18382 0,0.68409 -0.856,1.6641 -1.45353,1.6641 -0.21736,0 -1.318689,-0.81672 -2.447399,-1.81493 z m -45.428865,-0.88978 c -0.226531,-0.32342 -0.411877,-0.70006 -0.411877,-0.83699 0,-0.42173 9.311759,-22.233318 9.646782,-22.596337 0.255641,-0.277 0.547463,-0.241451 1.551742,0.189034 0.680291,0.291608 1.236892,0.620951 1.236892,0.731875 0,0.441833 -9.357754,22.205468 -9.733465,22.637438 -0.572529,0.65826 -1.787914,0.59192 -2.290074,-0.12502 z m -39.252711,-9.78363 c -0.534208,-0.5342 -0.379208,-1.74689 0.277813,-2.17355 0.327422,-0.21262 2.907633,-1.35426 5.733801,-2.53696 5.485765,-2.29571 6.170113,-2.41367 6.651858,-1.14659 0.473445,1.24526 -0.130739,1.66641 -5.73504,3.99762 -5.228097,2.17472 -6.320115,2.4678 -6.928432,1.85948 z m 99.430415,-1.42703 c -2.25557,-0.94935 -4.25089,-1.79177 -4.43405,-1.87205 -0.40777,-0.17871 -0.70579,-1.26418 -0.4967,-1.80907 0.0844,-0.21987 0.43603,-0.52853 0.78147,-0.68592 0.53331,-0.243 1.28294,-0.021 4.96837,1.47114 5.18027,2.0974 6.0212,2.82723 4.73716,4.11127 -0.29104,0.29104 -0.73752,0.52501 -0.99219,0.51994 -0.25466,-0.005 -2.30849,-0.78597 -4.56406,-1.73531 z m 8.46667,-2.4888 c -0.29104,-0.29104 -0.52917,-0.75727 -0.52917,-1.03605 0,-0.27879 0.9667,-1.61825 2.14823,-2.97657 11.21802,-12.896599 17.44335,-27.280091 19.04768,-44.009256 0.37843,-3.946084 0.15627,-13.527324 -0.39963,-17.235216 -1.32058,-8.808347 -3.33568,-15.224224 -7.31339,-23.285075 -6.00451,-12.1681646 -14.97497,-22.3492218 -26.31518,-29.866504 -3.98435,-2.64118 -8.03359,-4.776148 -8.18415,-4.315107 -0.0636,0.19469 -0.16846,1.127888 -0.23308,2.073774 -0.112301,1.643811 -0.476424,2.423804 -8.241836,17.6548736 -7.958098,15.6090014 -8.151299,15.9548674 -9.441513,16.9019704 -1.811364,1.329663 -4.746787,2.4135 -8.037108,2.967516 -1.522365,0.256331 -2.87265,0.580009 -3.000632,0.719286 -0.297061,0.323276 -0.631785,51.714691 -0.33683,51.714691 0.121015,0 3.144046,-6.87586 6.717847,-15.279688 6.928321,-16.292008 7.111765,-16.63653 8.517359,-15.996098 1.414933,0.644686 1.388118,0.727062 -5.552221,17.054926 -7.843178,18.451891 -7.394937,17.501423 -8.143658,17.268193 -1.79112,-0.557943 -1.767313,-0.56905 -1.767173,0.824426 1.24e-4,1.220772 0.07044,1.348163 1.354489,2.453971 2.555156,2.200463 3.337227,5.497859 1.982489,8.358645 -2.529933,5.342438 -9.876999,5.495714 -12.682276,0.264584 -0.444852,-0.829535 -0.567547,-1.515931 -0.567547,-3.175001 0,-2.593329 0.557599,-3.808073 2.499717,-5.445694 1.264822,-1.066511 1.327582,-1.18147 1.327582,-2.431775 0,-1.420196 0.02445,-1.40835 -1.75744,-0.851736 -0.529566,0.165423 -0.796057,-0.40042 -4.055289,-8.610624 -3.682926,-9.277512 -3.802888,-9.7735 -2.506703,-10.364081 1.351354,-0.615718 1.799836,0.112818 4.914821,7.983871 1.578753,3.989247 2.972909,7.355629 3.098123,7.480843 0.127161,0.127161 0.302196,-1.209085 0.396499,-3.026987 0.217908,-4.200576 0.28752,-47.969307 0.07684,-48.310199 C 64.724017,22.616 63.976,22.415139 63.149674,22.311896 59.742164,21.886155 55.710165,20.44615 53.86776,18.996916 53.491729,18.701127 52.861076,18.014862 52.466307,17.471878 52.071541,16.928898 48.220896,9.559487 43.90932,1.0954103 L 36.070089,-14.293819 v -2.404001 c 0,-2.031964 -0.06582,-2.404001 -0.425323,-2.404001 -0.780532,0 -7.868288,3.806246 -11.095271,5.95835 -4.556114,3.038515 -7.956468,5.8318844 -11.901987,9.7774031 -6.1919297,6.19193 -10.5450007,12.2600828 -14.4019701,20.0762509 -3.9777098,8.060851 -5.9928143,14.476728 -7.3133971,23.285075 -0.555902,3.707892 -0.7780602,13.289132 -0.3996296,17.235216 1.5864329,16.542515 7.7064836,30.841133 18.5967214,43.448566 1.7518394,2.02807 2.3346064,2.88997 2.3346064,3.45281 0,0.97848 -0.436888,1.38508 -1.4882326,1.38508 -0.7412514,0 -1.120221,-0.30384 -2.8875366,-2.3151 C -2.0120776,92.845567 -8.3816187,80.277315 -11.119855,67.274317 c -1.360427,-6.460234 -1.610742,-9.036678 -1.618454,-16.658427 -0.0075,-7.455316 0.156535,-9.35145 1.343195,-15.522364 1.32346,-6.882302 3.3272745,-12.741969 6.7255511,-19.667221 6.497497,-13.241068 16.4797779,-24.3145046 29.0979849,-32.278662 3.158934,-1.993806 10.051341,-5.445046 13.706557,-6.863295 5.211731,-2.022187 12.172979,-3.755392 18.837193,-4.690065 3.373406,-0.473129 15.676594,-0.473129 19.05,0 6.664214,0.934673 13.625462,2.667878 18.837193,4.690065 3.655216,1.418249 10.547625,4.869489 13.706555,6.863295 10.12959,6.393433 18.87377,15.1376117 25.2672,25.2672036 1.99381,3.1589344 5.44505,10.0513414 6.8633,13.7065574 2.02175,5.210609 3.75375,12.166357 4.6905,18.837194 0.54444,3.877141 0.46345,15.961279 -0.13389,19.976042 -2.44007,16.399786 -8.76291,30.222747 -19.31945,42.23604 -2.47816,2.82014 -3.09151,3.12866 -4.13849,2.08167 z M 90.309672,98.083602 C 82.815349,94.880609 76.57844,92.155086 76.449876,92.026888 c -0.28933,-0.288505 0.419066,-2.144988 0.945095,-2.4768 0.26612,-0.167862 4.403262,1.475828 13.856943,5.505377 7.412651,3.15958 13.745436,5.915735 14.072866,6.124805 1.14726,0.73254 0.54427,2.7642 -0.81265,2.73806 -0.31703,-0.006 -6.708135,-2.63173 -14.202458,-5.834728 z m -39.271726,5.165478 c -0.882756,-0.88276 -0.49771,-1.45522 4.057481,-6.032451 l 4.473257,-4.494898 0.931601,0.775205 c 0.512379,0.426363 0.940194,0.952485 0.950701,1.16916 0.0105,0.216675 -1.914311,2.330035 -4.277368,4.696354 -4.496501,4.5027 -5.122842,4.89946 -6.135672,3.88663 z m 27.094559,-3.862148 c -2.47037,-2.352852 -4.491583,-4.400166 -4.491583,-4.549585 0,-0.438001 1.384266,-1.756521 1.835438,-1.74826 0.227436,0.0042 2.350048,1.879399 4.716913,4.167187 3.479596,3.363346 4.302646,4.296036 4.299479,4.872216 -0.0039,0.71094 -0.822862,1.53636 -1.524328,1.53636 -0.189386,0 -2.36555,-1.92506 -4.835919,-4.277918 z m -47.180784,2.735728 c -0.580937,-0.64193 -0.554791,-1.53789 0.06025,-2.0645 0.273973,-0.234583 6.374418,-2.790517 13.556549,-5.679851 10.298382,-4.142987 13.126407,-5.184723 13.380093,-4.928709 0.176918,0.178543 0.502509,0.759301 0.723534,1.290568 0.313286,0.753031 0.330597,1.019908 0.07855,1.210758 -0.614984,0.465664 -26.254517,10.658824 -26.806787,10.657214 -0.304869,-8e-4 -0.751353,-0.21936 -0.992188,-0.48548 z M 14.547555,87.835162 c -0.62498,-0.690594 -0.552754,-1.786929 0.150156,-2.279269 0.488516,-0.342169 1.563193,-0.411877 6.35,-0.411877 5.409184,0 5.794359,0.0324 6.291128,0.529167 0.291041,0.291042 0.529166,0.767292 0.529166,1.058334 0,0.291041 -0.238125,0.767291 -0.529166,1.058333 -0.497592,0.497591 -0.881944,0.529167 -6.441284,0.529167 -5.391547,0 -5.950675,-0.0426 -6.35,-0.483855 z m 23.993197,0.219634 c -1.229974,-0.495994 -1.086422,-2.166755 0.225462,-2.624082 0.934339,-0.325713 17.879587,-0.403363 18.376037,-0.08421 0.266587,0.171381 0.498983,1.721461 0.396071,2.641782 -0.02884,0.257887 -2.061967,0.327036 -9.231254,0.313958 -5.056849,-0.0092 -9.451692,-0.120576 -9.766316,-0.247448 z m 39.24531,0.08783 c -0.337794,-0.337791 -0.180576,-2.401176 0.207494,-2.723245 0.277246,-0.230095 1.716482,-0.294217 5.181105,-0.230836 4.386501,0.08025 4.829342,0.131733 5.172366,0.601353 0.520044,0.711964 0.468821,1.377108 -0.154022,1.999951 -0.490683,0.490683 -0.881943,0.529167 -5.37986,0.529167 -2.667884,0 -4.930071,-0.07937 -5.027083,-0.17639 z M 97.247711,87.90714 c -0.37673,-0.263872 -0.588039,-0.68633 -0.588039,-1.175623 0,-1.601809 -0.12469,-1.587501 13.834598,-1.587501 8.45086,0 12.83359,0.0937 13.18522,0.28188 1.01375,0.542544 1.08467,2.050851 0.12651,2.690632 -0.16012,0.106913 -6.06892,0.19621 -13.13068,0.198438 -11.196999,0.0035 -12.914799,-0.04864 -13.427609,-0.407826 z M 77.07465,83.145978 C 76.723477,82.326728 76.62334,81.791182 76.790138,81.624383 77.226,81.188522 112.00134,67.416932 112.6661,67.416932 c 1.29571,0 1.94364,1.598068 0.99305,2.449256 -0.38198,0.34204 -34.108092,14.005889 -35.583018,14.416157 -0.346268,0.09632 -0.593193,-0.183861 -1.001482,-1.136367 z M 49.563839,80.747374 c -4.292865,-1.832896 -8.013568,-3.516926 -8.26823,-3.742288 -0.567779,-0.502457 -0.604647,-1.732904 -0.06533,-2.180497 0.218728,-0.181528 0.685347,-0.330052 1.036928,-0.330052 0.707223,0 15.684135,6.278171 16.252291,6.812796 0.298108,0.280517 0.267956,0.536276 -0.18356,1.557002 -0.297143,0.67174 -0.636252,1.220049 -0.753576,1.218461 -0.117324,-0.0016 -3.725659,-1.502526 -8.018523,-3.335422 z m 3.180162,-6.864104 c -3.650359,-3.61642 -6.702785,-6.837358 -6.783168,-7.157638 -0.239141,-0.95281 0.327557,-1.68995 1.299194,-1.68995 0.761132,0 1.554689,0.702538 7.399025,6.550385 3.600551,3.60271 6.546453,6.67498 6.546453,6.827264 0,0.152284 -0.410511,0.674764 -0.912246,1.161063 l -0.912246,0.884185 z m 22.118949,5.589858 c -0.381074,-0.499613 -0.692861,-1.009645 -0.692861,-1.133404 0,-0.123759 2.298906,-2.512952 5.108678,-5.30932 4.043008,-4.023717 5.254106,-5.084305 5.805831,-5.084305 0.714698,0 1.520907,0.829659 1.520907,1.565148 0,0.457743 -10.289328,10.870269 -10.741657,10.870269 -0.169421,0 -0.619824,-0.408776 -1.000898,-0.908388 z M 33.176899,73.689881 c -1.54464,-0.769303 -1.858584,-1.297419 -1.331799,-2.240336 0.551844,-0.987764 1.419643,-1.026221 3.166655,-0.140327 1.139196,0.577675 1.472692,0.888706 1.535719,1.432264 0.177686,1.532408 -1.340348,1.959546 -3.370575,0.948399 z M 19.69483,67.810561 C 14.399221,65.419291 9.8450797,63.262463 9.5745184,63.017607 8.61812,62.152078 9.2860506,60.537765 10.600565,60.537765 c 0.302648,0 4.952459,1.975713 10.332912,4.39047 10.30949,4.62692 10.78982,4.921729 10.104681,6.201921 -0.267327,0.499504 -1.075444,1.059442 -1.499113,1.03872 -0.118708,-0.0058 -4.548603,-1.967048 -9.844215,-4.358315 z m 71.467464,-4.245089 c -0.379407,-0.265748 -0.588039,-0.68603 -0.588039,-1.184585 0,-0.66362 1.573602,-2.360991 11.146795,-12.023537 6.41656,-6.476453 11.34761,-11.250835 11.62002,-11.250835 1.49748,0 2.13379,1.186494 1.32763,2.475574 -0.76557,1.224176 -22.056206,22.39526 -22.521727,22.39526 -0.218152,0 -0.66126,-0.185346 -0.984679,-0.411877 z M 39.20189,60.580964 c -1.847747,-1.84775 -3.131801,-3.342339 -3.131801,-3.645297 0,-0.857893 0.758293,-1.689568 1.540494,-1.689568 0.562716,0 1.383911,0.668916 3.821454,3.112828 3.276184,3.284744 3.64953,3.985027 2.620864,4.915956 -0.993902,0.899469 -1.586968,0.570121 -4.851011,-2.693919 z m 14.543231,-5.004136 c -0.219258,-0.254662 -1.55909,-3.338735 -2.977402,-6.853495 -2.71367,-6.724822 -2.821717,-7.256568 -1.588645,-7.818395 1.270508,-0.578882 1.702964,0.08944 4.441653,6.864152 2.548109,6.303272 2.843053,7.3504 2.240195,7.953259 -0.467863,0.467862 -1.658181,0.385992 -2.115801,-0.145521 z m -23.70894,-4.391145 c -1.629058,-1.651145 -2.961926,-3.206784 -2.961926,-3.456977 0,-0.931169 0.523052,-1.478441 1.413008,-1.478441 0.752377,0 1.251534,0.391549 3.82715,3.002082 3.015377,3.056257 3.373623,3.692175 2.546151,4.519644 -0.965689,0.965692 -1.71759,0.562605 -4.824383,-2.586308 z"
         id="path4571" />
      <path
         style="fill:#f06422;stroke-width:0.264583"
         d="M 80.863819,122.13292 C 80.543205,121.72795 70.729915,97.045809 70.730267,96.645253 c 2.65e-4,-0.352369 1.638615,-0.97504 1.887236,-0.71728 0.505153,0.523716 10.035342,25.116917 9.965465,25.716447 -0.0585,0.50191 -0.252846,0.69382 -0.762611,0.75308 -0.376256,0.0437 -0.806699,-0.0753 -0.956538,-0.26458 z m -47.241126,-1.02676 c -1.153232,-0.6717 -0.631404,-1.34282 6.452235,-8.2982 5.894237,-5.78751 7.017356,-6.7782 7.606771,-6.70981 0.514186,0.0597 0.710959,0.24986 0.767336,0.7417 0.06333,0.55252 -1.071507,1.8053 -6.890657,7.60677 -3.831564,3.81992 -7.080369,6.9417 -7.219572,6.93727 -0.1392,-0.004 -0.461452,-0.1294 -0.716113,-0.27773 z m 62.970267,-3.88141 c -2.168583,-2.14644 -4.056941,-4.11097 -4.19635,-4.36563 -0.353393,-0.64555 0.165944,-1.52135 0.902134,-1.52135 0.781563,0 8.652596,7.83709 8.652596,8.61529 0,0.63273 -0.47282,1.17429 -1.02525,1.17429 -0.21464,0 -2.164547,-1.75617 -4.33313,-3.9026 z m -42.861934,1.76474 c -0.254661,-0.14832 -0.463021,-0.47887 -0.463021,-0.73455 0,-0.36648 9.108176,-22.158623 9.394394,-22.476943 0.209979,-0.233532 2.023658,0.783619 1.912178,1.07239 -1.530786,3.965293 -9.351917,21.856033 -9.658696,22.094153 -0.505929,0.39269 -0.582814,0.39561 -1.184855,0.045 z m 68.064064,-13.73714 c -0.29104,-0.29104 -0.52917,-0.75727 -0.52917,-1.03605 0,-0.27879 0.9667,-1.61825 2.14823,-2.97657 10.33942,-11.886531 16.3631,-24.891583 18.66852,-40.30509 0.59984,-4.010379 0.67673,-16.081717 0.12725,-19.976042 -3.18846,-22.597452 -15.10772,-41.72946338 -33.67138,-54.047089 -2.89439,-1.920528 -7.74534,-4.690414 -8.2144,-4.690414 -0.12369,0 -0.22488,0.787329 -0.22488,1.749619 v 1.749618 L 91.877648,1.954179 c -7.95655,15.710485 -8.262239,16.263674 -9.482002,17.159063 -2.203593,1.617584 -5.829607,2.836969 -9.680766,3.255524 l -1.852083,0.201289 -0.161655,7.672917 c -0.08891,4.220105 -0.178208,16.156121 -0.198438,26.524481 -0.03134,16.061595 0.01842,18.851563 0.336214,18.851563 0.328938,0 3.069373,-6.245466 12.646742,-28.821974 0.644084,-1.518282 1.371413,-2.886893 1.616287,-3.041354 0.542671,-0.34231 1.325695,0.07042 1.463432,0.771361 0.05069,0.257964 -2.985405,7.71937 -6.746875,16.580904 -6.735512,15.867979 -6.849052,16.10921 -7.500499,15.935606 -1.613675,-0.43003 -1.713476,-0.356375 -1.800373,1.328695 l -0.08058,1.562616 1.346544,1.177923 c 1.88277,1.647002 2.486676,2.915163 2.486676,5.221848 0,2.757364 -1.201494,4.734862 -3.668591,6.038012 -1.406154,0.742749 -4.346686,0.7825 -5.69201,0.07695 -3.114744,-1.633519 -4.508894,-4.752311 -3.579532,-8.00762 0.373809,-1.309363 0.705128,-1.797606 2.157439,-3.179287 l 1.715807,-1.632363 -0.08071,-1.410345 c -0.07889,-1.37845 -0.09866,-1.409846 -0.874461,-1.388198 -0.436563,0.01217 -0.99018,0.109641 -1.230257,0.216572 -0.368433,0.1641 -0.959668,-1.127768 -3.791038,-8.283509 -1.844989,-4.662863 -3.315435,-8.676619 -3.267657,-8.919462 0.135742,-0.68994 0.923391,-1.081111 1.475931,-0.732991 0.26721,0.168349 1.805726,3.683403 3.638021,8.311791 1.74625,4.411038 3.313723,8.065945 3.483276,8.122013 0.169553,0.05607 0.368911,-0.112972 0.443021,-0.375642 0.07411,-0.262674 0.216683,-12.216541 0.316831,-26.56415 L 65.498428,22.519848 63.77553,22.358963 C 59.631055,21.971944 55.122451,20.249585 53.202018,18.319712 52.656405,17.771413 51.56837,16.062655 50.784166,14.522473 49.999962,12.982288 46.376345,5.8757751 42.731683,-1.2697823 l -6.626659,-12.9919207 0.149437,-1.975902 c 0.09472,-1.25245 0.03934,-2.181616 -0.151254,-2.53775 l -0.300691,-0.561848 -1.762948,0.824982 C 24.698488,-14.141001 15.678117,-7.2881604 8.8973703,0.58848976 -1.070347,12.167189 -7.0261339,25.441436 -9.215579,40.958598 c -0.5494827,3.894325 -0.472585,15.965663 0.1272529,19.976042 1.7316884,11.577675 5.7553387,22.221488 11.9023448,31.485418 2.1057624,3.173519 3.5197772,5.022755 6.3152139,8.258982 2.3736174,2.74789 2.8105114,3.72699 2.0171064,4.52039 -0.739231,0.73923 -1.8551131,0.36506 -3.1956868,-1.07156 C -0.34569819,95.23712 -7.3036795,82.449195 -10.363834,70.468073 -13.388197,58.627079 -13.666754,45.52482 -11.142365,33.848997 -7.0887542,15.100204 3.4273909,-1.3087157 18.872172,-12.984338 c 10.800884,-8.165025 23.461935,-13.351477 37.32916,-15.291455 4.607706,-0.644602 15.983974,-0.644602 20.59168,0 21.53631,3.012857 40.181238,13.92974 53.174368,31.1343893 14.47462,19.1663377 19.40535,44.0613047 13.3908,67.6094767 -3.0782,12.051774 -10.06273,24.852459 -18.43823,33.792087 -1.54702,1.65122 -2.2444,1.87265 -3.12486,0.99219 z M 90.574255,97.690347 c -7.348802,-3.135551 -13.449771,-5.787655 -13.55771,-5.893565 -0.255453,-0.25065 0.363053,-1.890265 0.713055,-1.890265 0.683691,0 27.6329,11.715123 27.76978,12.071833 0.23578,0.61444 -0.32153,1.42245 -0.97766,1.41746 -0.3223,-0.002 -6.598663,-2.56991 -13.947465,-5.705463 z m -59.35486,4.210613 c -0.295944,-0.29594 -0.19663,-1.33033 0.154339,-1.60751 0.23499,-0.18558 21.961293,-9.007838 25.999546,-10.55746 0.448395,-0.172066 1.235147,1.658091 0.841529,1.957575 -0.609346,0.463617 -25.721919,10.397155 -26.26781,10.390505 -0.30317,-0.004 -0.630592,-0.0861 -0.727604,-0.18311 z M 14.641482,87.26562 c -0.204737,-0.382553 -0.204737,-0.685654 0,-1.068207 0.275571,-0.514911 0.500687,-0.531548 6.264526,-0.463021 5.359755,0.06373 6.008897,0.119015 6.270548,0.534104 0.212768,0.337534 0.212768,0.588507 0,0.926041 -0.261651,0.415089 -0.910793,0.470379 -6.270548,0.534104 -5.763839,0.06853 -5.988955,0.05189 -6.264526,-0.463021 z m 82.556665,0.01246 c -0.354222,-0.661871 -0.350002,-0.697235 0.141883,-1.189119 0.366651,-0.366657 1.945946,-0.41578 13.36713,-0.41578 h 12.95136 l 0.29781,0.653624 c 0.22772,0.499785 0.21875,0.748874 -0.0381,1.058334 -0.29315,0.353218 -1.9969,0.404709 -13.39105,0.404709 -12.636474,0 -13.063953,-0.0164 -13.329063,-0.511773 z M 77.413206,82.891674 c -0.240766,-0.78449 -0.216744,-0.966092 0.154045,-1.164529 0.241613,-0.129305 8.212776,-3.344167 17.713693,-7.144139 18.454076,-7.380862 18.464786,-7.384164 18.261776,-5.626918 -0.0784,0.678833 -0.84978,1.018135 -17.676798,7.775644 -9.677135,3.886208 -17.723644,7.07113 -17.881129,7.077604 -0.157485,0.0065 -0.4147,-0.406474 -0.571587,-0.917662 z M 49.431547,80.217109 c -4.220104,-1.810131 -7.809151,-3.47168 -7.975661,-3.692332 -0.405707,-0.537636 -0.156046,-1.379616 0.467789,-1.577615 0.324427,-0.102968 3.315713,1.038807 8.371954,3.195577 4.326942,1.845683 7.903908,3.389249 7.948813,3.430143 0.155422,0.141544 -0.716965,1.983536 -0.928039,1.959504 -0.116568,-0.01327 -3.664752,-1.505148 -7.884856,-3.315277 z M 19.717981,67.323323 C 14.435104,64.943668 9.9899457,62.873872 9.8398518,62.723779 9.6897577,62.573684 9.6067994,62.169258 9.6555002,61.825053 c 0.1816227,-1.283668 1.2202548,-0.954106 11.1765698,3.54638 5.225288,2.361952 9.62999,4.502817 9.788229,4.757479 0.35981,0.579059 -0.06647,1.359315 -0.794941,1.45506 -0.27618,0.0363 -4.824499,-1.880995 -10.107377,-4.260649 z m 71.71617,-4.050369 c -0.181901,-0.0734 -0.330729,-0.43112 -0.330729,-0.794933 0,-0.515485 2.406684,-3.109275 10.904178,-11.751911 7.45872,-7.586115 11.07869,-11.090429 11.45646,-11.090429 0.63539,0 1.18728,0.467043 1.18728,1.004753 0,0.54248 -21.943117,22.811474 -22.453406,22.786859 -0.23818,-0.01148 -0.581882,-0.08094 -0.763783,-0.154339 z M 39.548055,60.179382 c -2.399138,-2.405965 -2.977851,-3.130428 -2.906101,-3.638021 0.06734,-0.476406 0.280244,-0.655556 0.857308,-0.721394 0.666578,-0.07605 1.130744,0.272497 3.52348,2.645833 3.159736,3.134117 3.382161,3.446246 2.984847,4.188632 -0.57259,1.069896 -1.360938,0.632362 -4.459534,-2.47505 z"
         id="path4569" />
      <path
         style="fill:#676868;stroke-width:0.264583"
         d="m 121.79509,105.25235 c -0.29104,-0.29104 -0.52917,-0.75727 -0.52917,-1.03605 0,-0.27879 0.9667,-1.61825 2.14823,-2.97657 10.33942,-11.886531 16.3631,-24.891583 18.66852,-40.30509 0.59984,-4.010379 0.67673,-16.081717 0.12725,-19.976042 -3.18846,-22.597452 -15.10772,-41.72946338 -33.67138,-54.047089 -2.89439,-1.920528 -7.74534,-4.690414 -8.2144,-4.690414 -0.12369,0 -0.22488,0.787329 -0.22488,1.749619 v 1.749618 L 91.877648,1.954179 c -7.95655,15.710485 -8.262239,16.263674 -9.482002,17.159063 -2.210081,1.622346 -6.004949,2.899 -9.61462,3.234511 l -1.785937,0.165999 v -1.0599 -1.059899 l 1.45752,-0.171302 c 3.571542,-0.419764 6.744563,-2.108375 6.744563,-3.589303 0,-1.747983 -2.159952,-2.952888 -6.482292,-3.616069 -5.890302,-0.903753 -13.368824,0.195723 -14.942936,2.196881 -0.749692,0.953082 -0.68802,2.080149 0.156662,2.862974 1.018702,0.944099 3.426429,1.76757 5.393566,1.844662 l 1.719792,0.0674 0.08225,1.263661 0.08225,1.26366 -1.614059,-0.168703 C 59.482756,21.918268 55.087291,20.214253 53.202018,18.319712 52.656405,17.771413 51.56837,16.062655 50.784166,14.522473 49.999962,12.982288 46.376345,5.8757751 42.731683,-1.2697823 l -6.626659,-12.9919207 0.149437,-1.975902 c 0.09472,-1.25245 0.03934,-2.181616 -0.151254,-2.53775 l -0.300691,-0.561848 -1.762948,0.824982 C 24.698488,-14.141001 15.678117,-7.2881604 8.8973703,0.58848976 -1.070347,12.167189 -7.0261339,25.441436 -9.215579,40.958598 c -0.5494827,3.894325 -0.472585,15.965663 0.1272529,19.976042 1.7316884,11.577675 5.7553387,22.221488 11.9023448,31.485418 2.1057624,3.173519 3.5197772,5.022755 6.3152139,8.258982 2.3736174,2.74789 2.8105114,3.72699 2.0171064,4.52039 -0.739231,0.73923 -1.8551131,0.36506 -3.1956868,-1.07156 C -0.34569819,95.23712 -7.3036795,82.449195 -10.363834,70.468073 -13.388197,58.627079 -13.666754,45.52482 -11.142365,33.848997 -7.0887542,15.100204 3.4273909,-1.3087157 18.872172,-12.984338 c 10.800884,-8.165025 23.461935,-13.351477 37.32916,-15.291455 4.607706,-0.644602 15.983974,-0.644602 20.59168,0 21.53631,3.012857 40.181238,13.92974 53.174368,31.1343893 14.47462,19.1663377 19.40535,44.0613047 13.3908,67.6094767 -3.0782,12.051774 -10.06273,24.852459 -18.43823,33.792087 -1.54702,1.65122 -2.2444,1.87265 -3.12486,0.99219 z"
         id="path4567" />
    </g>
  </g>
</svg>
